<mxfile host="app.diagrams.net" modified="2022-10-25T03:40:48.188Z" agent="5.0 (Windows NT 10.0; Win64; x64) AppleWebKit/537.36 (KHTML, like Gecko) Chrome/106.0.0.0 Safari/537.36" etag="Pb3X0C1iICf5S5Q-gvPE" version="20.5.1" type="github">
  <diagram id="DQ_vrP117uaJQmGJQuNW" name="Page-1">
    <mxGraphModel dx="1038" dy="539" grid="1" gridSize="10" guides="1" tooltips="1" connect="1" arrows="1" fold="1" page="1" pageScale="1" pageWidth="850" pageHeight="1100" math="0" shadow="0">
      <root>
        <mxCell id="0" />
        <mxCell id="1" parent="0" />
        <mxCell id="_W8LQLTBRv4vKXboiY6--5" value="Posts" style="swimlane;startSize=30;" vertex="1" parent="1">
          <mxGeometry x="20" width="190" height="370" as="geometry" />
        </mxCell>
        <mxCell id="_W8LQLTBRv4vKXboiY6--9" value="Image" style="text;html=1;align=center;verticalAlign=middle;resizable=0;points=[];autosize=1;strokeColor=none;fillColor=none;" vertex="1" parent="_W8LQLTBRv4vKXboiY6--5">
          <mxGeometry x="65" y="170" width="60" height="30" as="geometry" />
        </mxCell>
        <mxCell id="_W8LQLTBRv4vKXboiY6--8" value="Description" style="text;html=1;align=center;verticalAlign=middle;resizable=0;points=[];autosize=1;strokeColor=none;fillColor=none;" vertex="1" parent="_W8LQLTBRv4vKXboiY6--5">
          <mxGeometry x="55" y="90" width="80" height="30" as="geometry" />
        </mxCell>
        <mxCell id="_W8LQLTBRv4vKXboiY6--7" value="Content" style="text;html=1;align=center;verticalAlign=middle;resizable=0;points=[];autosize=1;strokeColor=none;fillColor=none;rotation=0;" vertex="1" parent="_W8LQLTBRv4vKXboiY6--5">
          <mxGeometry x="60" y="130" width="70" height="30" as="geometry" />
        </mxCell>
        <mxCell id="_W8LQLTBRv4vKXboiY6--6" value="Title" style="text;html=1;align=center;verticalAlign=middle;resizable=0;points=[];autosize=1;strokeColor=none;fillColor=none;" vertex="1" parent="_W8LQLTBRv4vKXboiY6--5">
          <mxGeometry x="70" y="50" width="50" height="30" as="geometry" />
        </mxCell>
        <mxCell id="_W8LQLTBRv4vKXboiY6--18" value="Category_id" style="text;html=1;align=center;verticalAlign=middle;resizable=0;points=[];autosize=1;strokeColor=none;fillColor=none;" vertex="1" parent="_W8LQLTBRv4vKXboiY6--5">
          <mxGeometry x="50" y="290" width="90" height="30" as="geometry" />
        </mxCell>
        <mxCell id="_W8LQLTBRv4vKXboiY6--17" value="User_id" style="text;html=1;align=center;verticalAlign=middle;resizable=0;points=[];autosize=1;strokeColor=none;fillColor=none;" vertex="1" parent="_W8LQLTBRv4vKXboiY6--5">
          <mxGeometry x="65" y="250" width="60" height="30" as="geometry" />
        </mxCell>
        <mxCell id="_W8LQLTBRv4vKXboiY6--16" value="View" style="text;html=1;align=center;verticalAlign=middle;resizable=0;points=[];autosize=1;strokeColor=none;fillColor=none;" vertex="1" parent="_W8LQLTBRv4vKXboiY6--5">
          <mxGeometry x="70" y="210" width="50" height="30" as="geometry" />
        </mxCell>
        <mxCell id="_W8LQLTBRv4vKXboiY6--44" value="Slug" style="text;html=1;align=center;verticalAlign=middle;resizable=0;points=[];autosize=1;strokeColor=none;fillColor=none;" vertex="1" parent="_W8LQLTBRv4vKXboiY6--5">
          <mxGeometry x="70" y="330" width="50" height="30" as="geometry" />
        </mxCell>
        <mxCell id="_W8LQLTBRv4vKXboiY6--20" value="User" style="swimlane;" vertex="1" parent="1">
          <mxGeometry x="540" y="30" width="200" height="180" as="geometry" />
        </mxCell>
        <mxCell id="_W8LQLTBRv4vKXboiY6--21" value="Email" style="text;html=1;align=center;verticalAlign=middle;resizable=0;points=[];autosize=1;strokeColor=none;fillColor=none;" vertex="1" parent="_W8LQLTBRv4vKXboiY6--20">
          <mxGeometry x="75" y="30" width="50" height="30" as="geometry" />
        </mxCell>
        <mxCell id="_W8LQLTBRv4vKXboiY6--24" value="Role" style="text;html=1;align=center;verticalAlign=middle;resizable=0;points=[];autosize=1;strokeColor=none;fillColor=none;" vertex="1" parent="_W8LQLTBRv4vKXboiY6--20">
          <mxGeometry x="75" y="150" width="50" height="30" as="geometry" />
        </mxCell>
        <mxCell id="_W8LQLTBRv4vKXboiY6--23" value="Name" style="text;html=1;align=center;verticalAlign=middle;resizable=0;points=[];autosize=1;strokeColor=none;fillColor=none;" vertex="1" parent="_W8LQLTBRv4vKXboiY6--20">
          <mxGeometry x="70" y="110" width="60" height="30" as="geometry" />
        </mxCell>
        <mxCell id="_W8LQLTBRv4vKXboiY6--22" value="Password" style="text;html=1;align=center;verticalAlign=middle;resizable=0;points=[];autosize=1;strokeColor=none;fillColor=none;" vertex="1" parent="_W8LQLTBRv4vKXboiY6--20">
          <mxGeometry x="60" y="70" width="80" height="30" as="geometry" />
        </mxCell>
        <mxCell id="_W8LQLTBRv4vKXboiY6--25" value="Categories" style="swimlane;" vertex="1" parent="1">
          <mxGeometry x="560" y="250" width="200" height="130" as="geometry" />
        </mxCell>
        <mxCell id="_W8LQLTBRv4vKXboiY6--26" value="Name" style="text;html=1;align=center;verticalAlign=middle;resizable=0;points=[];autosize=1;strokeColor=none;fillColor=none;" vertex="1" parent="_W8LQLTBRv4vKXboiY6--25">
          <mxGeometry x="70" y="40" width="60" height="30" as="geometry" />
        </mxCell>
        <mxCell id="_W8LQLTBRv4vKXboiY6--48" value="Slug" style="text;html=1;align=center;verticalAlign=middle;resizable=0;points=[];autosize=1;strokeColor=none;fillColor=none;" vertex="1" parent="_W8LQLTBRv4vKXboiY6--25">
          <mxGeometry x="75" y="80" width="50" height="30" as="geometry" />
        </mxCell>
        <mxCell id="_W8LQLTBRv4vKXboiY6--27" value="Comments" style="swimlane;" vertex="1" parent="1">
          <mxGeometry x="20" y="460" width="200" height="150" as="geometry" />
        </mxCell>
        <mxCell id="_W8LQLTBRv4vKXboiY6--28" value="Content" style="text;html=1;align=center;verticalAlign=middle;resizable=0;points=[];autosize=1;strokeColor=none;fillColor=none;" vertex="1" parent="_W8LQLTBRv4vKXboiY6--27">
          <mxGeometry x="65" y="30" width="70" height="30" as="geometry" />
        </mxCell>
        <mxCell id="_W8LQLTBRv4vKXboiY6--31" value="User_id" style="text;html=1;align=center;verticalAlign=middle;resizable=0;points=[];autosize=1;strokeColor=none;fillColor=none;" vertex="1" parent="_W8LQLTBRv4vKXboiY6--27">
          <mxGeometry x="70" y="70" width="60" height="30" as="geometry" />
        </mxCell>
        <mxCell id="_W8LQLTBRv4vKXboiY6--32" value="Post_id" style="text;html=1;align=center;verticalAlign=middle;resizable=0;points=[];autosize=1;strokeColor=none;fillColor=none;" vertex="1" parent="_W8LQLTBRv4vKXboiY6--27">
          <mxGeometry x="70" y="110" width="60" height="30" as="geometry" />
        </mxCell>
        <mxCell id="_W8LQLTBRv4vKXboiY6--38" value="Contact" style="swimlane;startSize=20;" vertex="1" parent="1">
          <mxGeometry x="560" y="420" width="200" height="240" as="geometry" />
        </mxCell>
        <mxCell id="_W8LQLTBRv4vKXboiY6--39" value="Name" style="text;html=1;align=center;verticalAlign=middle;resizable=0;points=[];autosize=1;strokeColor=none;fillColor=none;" vertex="1" parent="_W8LQLTBRv4vKXboiY6--38">
          <mxGeometry x="70" y="30" width="60" height="30" as="geometry" />
        </mxCell>
        <mxCell id="_W8LQLTBRv4vKXboiY6--40" value="Subject" style="text;html=1;align=center;verticalAlign=middle;resizable=0;points=[];autosize=1;strokeColor=none;fillColor=none;" vertex="1" parent="_W8LQLTBRv4vKXboiY6--38">
          <mxGeometry x="70" y="150" width="60" height="30" as="geometry" />
        </mxCell>
        <mxCell id="_W8LQLTBRv4vKXboiY6--41" value="Phone" style="text;html=1;align=center;verticalAlign=middle;resizable=0;points=[];autosize=1;strokeColor=none;fillColor=none;" vertex="1" parent="_W8LQLTBRv4vKXboiY6--38">
          <mxGeometry x="70" y="110" width="60" height="30" as="geometry" />
        </mxCell>
        <mxCell id="_W8LQLTBRv4vKXboiY6--42" value="Email" style="text;html=1;align=center;verticalAlign=middle;resizable=0;points=[];autosize=1;strokeColor=none;fillColor=none;" vertex="1" parent="_W8LQLTBRv4vKXboiY6--38">
          <mxGeometry x="75" y="70" width="50" height="30" as="geometry" />
        </mxCell>
        <mxCell id="_W8LQLTBRv4vKXboiY6--43" value="Message" style="text;html=1;align=center;verticalAlign=middle;resizable=0;points=[];autosize=1;strokeColor=none;fillColor=none;" vertex="1" parent="_W8LQLTBRv4vKXboiY6--38">
          <mxGeometry x="65" y="190" width="70" height="30" as="geometry" />
        </mxCell>
        <mxCell id="_W8LQLTBRv4vKXboiY6--49" value="Products" style="swimlane;startSize=20;" vertex="1" parent="1">
          <mxGeometry x="30" y="660" width="200" height="280" as="geometry" />
        </mxCell>
        <mxCell id="_W8LQLTBRv4vKXboiY6--50" value="Cate_id" style="text;html=1;align=center;verticalAlign=middle;resizable=0;points=[];autosize=1;strokeColor=none;fillColor=none;" vertex="1" parent="_W8LQLTBRv4vKXboiY6--49">
          <mxGeometry x="70" y="30" width="60" height="30" as="geometry" />
        </mxCell>
        <mxCell id="_W8LQLTBRv4vKXboiY6--51" value="Price" style="text;html=1;align=center;verticalAlign=middle;resizable=0;points=[];autosize=1;strokeColor=none;fillColor=none;" vertex="1" parent="_W8LQLTBRv4vKXboiY6--49">
          <mxGeometry x="75" y="150" width="50" height="30" as="geometry" />
        </mxCell>
        <mxCell id="_W8LQLTBRv4vKXboiY6--52" value="Description" style="text;html=1;align=center;verticalAlign=middle;resizable=0;points=[];autosize=1;strokeColor=none;fillColor=none;" vertex="1" parent="_W8LQLTBRv4vKXboiY6--49">
          <mxGeometry x="60" y="110" width="80" height="30" as="geometry" />
        </mxCell>
        <mxCell id="_W8LQLTBRv4vKXboiY6--53" value="Name" style="text;html=1;align=center;verticalAlign=middle;resizable=0;points=[];autosize=1;strokeColor=none;fillColor=none;" vertex="1" parent="_W8LQLTBRv4vKXboiY6--49">
          <mxGeometry x="70" y="70" width="60" height="30" as="geometry" />
        </mxCell>
        <mxCell id="_W8LQLTBRv4vKXboiY6--54" value="Image" style="text;html=1;align=center;verticalAlign=middle;resizable=0;points=[];autosize=1;strokeColor=none;fillColor=none;" vertex="1" parent="_W8LQLTBRv4vKXboiY6--49">
          <mxGeometry x="70" y="190" width="60" height="30" as="geometry" />
        </mxCell>
        <mxCell id="_W8LQLTBRv4vKXboiY6--55" value="Quantity" style="text;html=1;align=center;verticalAlign=middle;resizable=0;points=[];autosize=1;strokeColor=none;fillColor=none;" vertex="1" parent="_W8LQLTBRv4vKXboiY6--49">
          <mxGeometry x="65" y="230" width="70" height="30" as="geometry" />
        </mxCell>
      </root>
    </mxGraphModel>
  </diagram>
</mxfile>
